<svg width="933" height="465" viewBox="0 0 933 465" fill="none" xmlns="http://www.w3.org/2000/svg">
<path d="M418.8 14.3748C430.054 8.04146 442.28 3.01482 455.16 1.36149C472.094 -1.41184 489.52 0.188135 505.974 4.92147C543.734 17.3081 573.547 52.2415 577.6 92.0548C582 124.081 570.787 157.948 547.76 180.708C541.494 187.561 533.374 192.241 525.64 197.228C519.334 201.201 512.107 203.308 505.12 205.695C512.574 197.681 520.947 190.628 528.747 182.975C539.507 173.601 549.894 163.428 556.787 150.788C559.48 145.655 561.787 140.335 563.24 134.721C566.067 125.855 568.427 116.695 567.84 107.308C557.147 106.668 546.854 109.695 536.8 112.921C538.974 120.841 540.227 129.028 540.64 137.228C540.72 148.255 538.227 159.228 534 169.388C529.747 178.095 524.04 186.015 517.094 192.761C511.44 198.148 506.414 204.788 498.894 207.641C458.16 218.948 411.694 202.148 387.267 167.735C375.587 152.001 368.134 132.988 366.947 113.375C364.76 85.8281 373.974 57.7215 391.774 36.6415C399.934 28.2948 408.427 19.9348 418.8 14.3748ZM448.214 13.9082C421.734 20.4415 399.054 39.5882 386.88 63.8148C385.96 66.0282 384.974 68.2015 383.96 70.3748C372.48 99.2548 376.014 133.855 394.414 159.095C406.64 176.695 424.867 190.655 445.854 195.775C450.534 197.361 455.427 197.975 460.28 198.828C463.28 198.988 466.294 199.055 469.32 199.162C470.454 191.028 468.84 182.761 469.854 174.588C471.4 154.215 484.134 136.921 498.36 123.175C505.534 117.108 513.6 112.228 521.454 107.108C518.454 102.801 515.32 98.5882 511.32 95.1615C510.894 95.2282 510.054 95.3615 509.627 95.4281C502.72 105.095 492.027 111.348 480.534 113.868C466.934 115.962 452.067 113.228 441.307 104.295C433.774 98.6815 429.307 89.8948 427.347 80.8815C429.947 79.0681 432.68 77.4148 435.574 76.0815C429.107 74.2815 425.307 67.8415 422.454 62.2148C421.04 58.0681 417.96 51.8815 422.387 48.5348C429.027 44.4682 437.347 44.2681 444.76 46.0148C444.814 38.3615 446.094 28.9748 453.614 25.0282C464.947 19.4415 478.52 21.9348 489.614 26.9215C503.2 33.5748 514.8 45.7482 517.254 61.1082C519.814 68.9082 516.854 76.8415 516.68 84.6415C522.12 89.3481 527.027 94.6681 530.52 101.001C531.6 103.308 534.534 101.561 536.28 101.148C537.614 100.668 538.974 100.188 540.334 99.7215C543.974 99.0281 547.587 98.1748 551.227 97.4681C556.307 96.2148 561.574 96.2681 566.774 96.0548C566.854 86.3348 563.747 76.9481 560.28 67.9748C559.08 65.2148 557.734 62.5348 556.294 59.8948C553.28 54.6548 549.614 49.8281 545.987 45.0148C532.547 28.3348 513 17.0281 492.147 12.6015C477.627 10.0281 462.534 10.3615 448.214 13.9082ZM456.134 40.9748C454.787 49.9081 456.347 59.4815 461.12 67.2282C469.347 66.2948 477.774 66.4548 485.814 68.5748C493.014 70.3082 499.267 74.4548 506.067 77.2282C506.907 73.7215 507.64 70.1482 507.4 66.5215C506.76 63.9482 506.294 61.3482 505.64 58.7882C505.147 57.4415 504.654 56.0948 504.16 54.7615C497.814 40.6681 481.88 33.1481 466.987 32.9748C462.107 32.7215 456.894 35.8815 456.134 40.9748ZM445.494 71.2415C446.747 70.7348 448 70.2282 449.267 69.7348C447.2 65.4415 446.027 60.7881 444.014 56.5081C440.8 54.3881 436.24 55.5882 432.534 55.4948C434.827 62.0548 440.427 66.7748 445.494 71.2415ZM470.814 78.3215C477.787 82.5482 485.987 84.6281 494.147 84.0948C487.227 79.8681 478.694 79.3748 470.814 78.3215ZM441.68 86.8815C445.64 92.9748 451.014 98.3348 457.894 101.015C467.24 104.881 477.947 104.015 487.04 99.8282C490.494 97.8948 493.534 95.3615 496.627 92.9082C482.6 96.8948 465.907 93.0015 457.467 80.4548C451.774 81.4415 446.68 84.1481 441.68 86.8815ZM506.774 131.521C497.187 139.881 488.814 149.895 483.374 161.468C481.08 166.735 478.147 171.761 476.387 177.268C474.507 183.655 473.68 190.321 473.52 196.975C491.44 196.455 510.227 188.161 519.374 172.095C529.787 156.588 532.267 136.361 526.614 118.655C518.867 120.868 512.747 126.388 506.774 131.521Z" fill="#D0B392"/>
<path d="M90.9598 290.015C95.2265 288.415 97.3865 292.749 98.8398 295.975C105.48 309.562 111.667 323.375 118.013 337.095C119.133 339.855 120.333 342.602 121.48 345.362C128.347 358.869 133.44 373.175 140.333 386.655C140.867 388.175 141.36 389.722 141.853 391.269C137.787 391.349 133.72 391.282 129.653 391.082C127.04 384.055 123.747 377.309 120.76 370.442C119.8 368.229 118.88 366.015 118.013 363.775C116.907 361.295 115.84 358.802 115.027 356.215C100.733 355.549 86.3865 355.802 72.0798 356.122C70.9865 358.802 69.8265 361.469 68.7198 364.149C67.6132 366.695 66.5332 369.255 65.4132 371.789C62.4798 378.269 59.8265 384.855 56.9732 391.362C53.2532 391.362 49.5465 391.322 45.8398 391.229C46.9065 385.975 49.2932 381.135 51.4398 376.269C56.4532 366.029 60.4532 355.349 65.4398 345.109C66.9598 341.629 68.4932 338.175 70.1065 334.749C71.1065 332.375 72.1865 330.042 73.2798 327.722C79.3998 315.255 84.2132 302.162 90.9598 290.015ZM77.5065 344.815C88.1465 344.962 98.7998 345.029 109.453 344.815C104.6 332.295 98.2398 320.362 93.7598 307.722C88.4265 320.122 82.8798 332.429 77.5065 344.815Z" fill="#D0B392"/>
<path d="M242.813 290.255C246.773 290.215 250.72 290.188 254.68 290.148C254.813 323.895 255.36 357.668 254.533 391.415C250.853 391.442 247.173 391.442 243.493 391.428C243.44 366.775 243.573 342.122 243.493 317.482C243.027 317.602 242.093 317.855 241.627 317.975C239.92 322.829 237.213 327.255 235.333 332.042C229.427 343.775 225.253 356.295 218.866 367.788C217.693 370.548 216.493 373.308 215.533 376.162C214.786 377.815 214.066 379.482 213.32 381.148C211.466 385.055 209.653 388.989 207.466 392.722C205.026 392.642 202.6 392.562 200.173 392.482C198.573 388.682 197 384.882 195.506 381.042C193.626 377.095 191.906 373.082 190.133 369.095C182.986 353.802 176.546 338.175 169.306 322.908C168.613 321.495 167.92 320.095 167.213 318.708C166.373 316.695 165.813 314.588 165.386 312.455C164.226 338.695 164.813 364.975 164.773 391.228C161.013 391.388 157.24 391.388 153.493 391.228C153.56 367.482 153.64 343.735 153.893 319.975C154.186 310.042 153.133 300.108 154 290.188C157.987 290.175 161.973 290.135 165.96 290.188C166.293 290.935 166.96 292.442 167.28 293.188C174.533 308.228 181.653 323.348 188.08 338.748C189.147 340.895 190.24 343.015 191.4 345.135C195.4 355.349 200.32 365.162 204.333 375.362C206.707 369.175 209.92 363.362 212.253 357.162C214.973 352.055 217.186 346.722 219.4 341.402C225.013 328.868 230.733 316.375 236.693 304.015C238.026 300.908 239.4 297.842 240.787 294.775C241.453 293.255 242.146 291.762 242.813 290.255Z" fill="#D0B392"/>
<path d="M572.44 293.548C585.96 287.921 601.573 287.574 615.24 292.908C617.773 294.161 620.28 295.481 622.76 296.868C622.694 301.148 622.427 305.414 621.947 309.668C613.56 303.214 603 299.494 592.36 300.228C577.427 300.214 564.107 310.814 558.04 324.028C557.36 326.148 556.747 328.281 556.04 330.414C554.88 340.961 554.667 352.174 559.453 361.948C566.12 374.841 580.293 383.868 594.987 383.121C604.573 383.401 613.68 379.494 621.267 373.881C622.12 377.601 622.8 381.361 623.44 385.148C621.014 386.401 618.627 387.708 616.227 388.988C602.867 395.174 587.054 395.148 573.427 389.734C557.44 382.468 545.493 366.654 543.813 349.054C539.773 326.881 552.187 303.281 572.44 293.548Z" fill="#D0B392"/>
<path d="M727.894 288.535C733.36 288.402 736.427 293.135 739.507 296.855C760.227 323.135 780.867 349.482 802.347 375.162C807.374 379.735 804.854 387.175 805.307 393.148C803.454 392.762 801.134 393.122 800.027 391.255C776.174 361.175 752.667 330.815 727.987 301.388C727.934 297.108 727.894 292.815 727.894 288.535Z" fill="#D0B392"/>
<path d="M880.133 294.175C896.667 286.895 916.907 287.122 932.373 296.962C932.013 301.135 931.373 305.269 930.373 309.335C915.16 296.255 889.893 297.015 875.813 311.415C865.307 322.215 861.933 338.802 865.747 353.175C868.853 367.389 880.947 378.855 894.973 382.228C907.16 385.122 920.013 381.135 929.893 373.802C930.933 377.642 931.88 381.522 932.333 385.509C930.613 386.442 928.893 387.389 927.2 388.335C924.973 389.175 922.773 390.055 920.613 391.002C908.893 394.629 896.12 394.669 884.533 390.482C872.773 385.909 862.92 376.709 857.387 365.375C856.52 363.162 855.64 360.962 854.76 358.775C853.093 351.349 850.92 343.642 852.48 336.029C852.88 332.322 853.64 328.682 854.64 325.109C858.507 311.869 868.24 300.882 880.133 294.175Z" fill="#D0B392"/>
<path d="M0 290.148C3.8 290.148 7.6 290.162 11.4 290.202C11.56 320.508 11.12 350.815 11.44 381.122C20.9067 381.815 30.4267 381.135 39.92 381.522C39.9867 384.748 40.0133 387.988 39.9733 391.242C26.9067 391.642 13.8267 391.335 0.746663 391.415C0.41333 389.388 0.0799967 387.335 0.0799967 385.295C0.0533301 353.575 0.226667 321.855 0 290.148Z" fill="#D0B392"/>
<path d="M275.28 290.228C278.893 290.228 282.493 290.188 286.12 290.188C285.933 303.268 286.027 316.348 285.92 329.428C284.893 336.934 286.453 344.468 285.88 352.001C285.04 360.481 285.8 369.828 291.067 376.881C298.467 385.295 313.787 385.215 320.653 376.121C323.387 372.708 324.373 368.201 324.627 363.921C324.88 339.361 324.56 314.788 324.787 290.228C328.4 290.214 332.013 290.188 335.64 290.161C335.72 313.401 335.733 336.654 335.653 359.894C335.707 366.548 334.693 373.428 331.493 379.361C327.453 386.508 320.2 391.441 312.267 393.281C303.893 394.601 294.667 393.815 287.667 388.615C278.533 382.281 274.653 370.681 274.853 359.948C275.067 336.708 274.453 313.441 275.28 290.228Z" fill="#D0B392"/>
<path d="M356.467 307.975C356.96 302.015 355.387 296.014 356.827 290.121C364.253 290.161 371.813 289.614 378.973 292.001C388.187 295.588 396.453 302.841 399.507 312.454C402.44 321.388 401.68 331.428 397.64 339.894C393.32 348.028 385.267 353.495 376.48 355.801C385.827 367.775 396.24 378.895 405.16 391.215C400.36 391.428 395.573 391.548 390.787 391.414C383.453 381.374 375.653 371.721 367.747 362.148C367.453 371.854 367.493 381.548 367.453 391.254C363.867 391.321 360.28 391.361 356.707 391.428C356.427 373.361 356.067 355.321 356.267 337.254C356.213 333.708 356.213 330.161 356.293 326.614C356.2 320.401 355.96 314.175 356.467 307.975ZM367.627 346.508C375.627 347.028 383.36 342.921 387.64 336.201C388.547 333.521 389.373 330.814 390.2 328.121C390.467 322.601 389.787 316.908 387.307 311.921C383.253 304.961 375.373 301.028 367.547 300.214C367.307 315.641 367.08 331.081 367.627 346.508Z" fill="#D0B392"/>
<path d="M419.627 391.415C419.814 357.681 419.667 323.935 419.774 290.201C423.32 290.175 426.867 290.135 430.414 290.095C430.587 323.855 430.64 357.615 430.467 391.375C426.854 391.415 423.24 391.428 419.627 391.415Z" fill="#D0B392"/>
<path d="M449.867 290.148C462.107 290.241 474.347 290.028 486.587 290.161C486.667 294.108 486.64 298.068 486.56 302.028C474.4 302.081 462.227 302.108 450.054 301.895C449.907 297.975 449.84 294.055 449.867 290.148Z" fill="#D0B392"/>
<path d="M642.481 391.362C642.294 357.655 642.227 323.948 642.467 290.255C646.054 290.228 649.654 290.202 653.254 290.188C653.547 320.468 653.214 350.762 653.214 381.042C663.014 381.322 672.827 381.015 682.627 381.122C682.694 383.895 682.827 386.708 683.441 389.455C683.161 389.948 682.601 390.962 682.321 391.469C669.041 391.402 655.747 391.775 642.481 391.362Z" fill="#D0B392"/>
<path d="M695.747 290.202C699.373 290.175 703 290.135 706.653 290.108C706.893 308.935 707.027 327.775 707.2 346.602C707.44 358.162 707.12 369.708 706.92 381.268C706.867 384.642 706.787 388.015 706.707 391.388C703.053 391.415 699.4 391.415 695.747 391.402C695.64 357.668 695.813 323.935 695.747 290.202Z" fill="#D0B392"/>
<path d="M794.2 329.268C794.44 316.255 793.787 303.228 794.4 290.228C798.013 290.175 801.64 290.121 805.267 290.095C805.36 304.815 805.32 319.548 805.187 334.268C805.214 338.601 799.2 339.135 796.387 337.281C793.64 335.521 794.32 332.015 794.2 329.268Z" fill="#D0B392"/>
<path d="M826.36 391.348C826.266 357.641 826.133 323.921 826.32 290.214C829.973 290.174 833.64 290.174 837.32 290.188C837.52 323.908 837.506 357.641 837.36 391.374C833.68 391.334 830.026 391.321 826.36 391.348Z" fill="#D0B392"/>
<path d="M726.547 334.455C726.774 327.588 738.88 329.161 738.147 335.775C738.48 354.268 737.947 372.775 737.947 391.268C734.2 391.455 730.467 391.375 726.747 391.175C726.507 372.268 726.574 353.361 726.547 334.455Z" fill="#D0B392"/>
<path d="M449.974 334.881C460.667 334.788 471.4 334.148 482.067 335.015C482.12 338.615 481.934 342.215 481.307 345.775C470.96 345.721 460.614 345.921 450.267 345.695C450.107 342.081 450.027 338.481 449.974 334.881Z" fill="#D0B392"/>
<path d="M449.547 381.601C461.92 381.041 474.32 380.735 486.707 381.468C486.72 384.735 486.734 388.015 486.68 391.295C474.427 391.388 462.174 391.588 449.934 391.348C449.787 388.095 449.627 384.841 449.547 381.601Z" fill="#D0B392"/>
<path d="M94.9063 267.228C98.2929 267.095 101.68 267.068 105.066 267.015C101.6 272.055 99.2529 277.721 96.5462 283.188C94.3329 283.321 92.1196 283.455 89.9062 283.588C90.2529 282.388 90.9596 279.975 91.3196 278.775C92.3596 274.868 93.6396 271.055 94.9063 267.228Z" fill="#D0B392"/>
<path d="M279.92 436.201C286.254 436.255 292.6 436.148 298.947 436.161C298.934 437.055 298.907 438.855 298.907 439.761C296.414 439.775 293.934 439.801 291.454 439.841C291.187 447.628 292.147 455.535 290.8 463.241C290.014 463.628 288.414 464.388 287.614 464.775C287.24 456.641 287.387 448.508 287.4 440.375H286.4C284.214 440.348 282.027 440.335 279.854 440.348C279.867 438.961 279.894 437.575 279.92 436.201Z" fill="#D0B392"/>
<path d="M307.52 436.148C308.947 435.961 310.374 435.788 311.8 435.628C313.907 445.148 311.854 454.881 311.96 464.508C310.507 464.495 309.067 464.508 307.64 464.535C307.374 455.068 307.387 445.601 307.52 436.148Z" fill="#D0B392"/>
<path d="M362.92 436.508C364.36 436.428 365.813 436.361 367.28 436.321C371.533 445.521 375.213 454.975 378.813 464.455C377.506 464.441 374.893 464.428 373.586 464.428C372.8 462.321 371.973 460.241 371.173 458.161C367.413 458.188 363.64 458.108 359.88 458.308C357.8 459.601 357.573 462.415 356.52 464.441C355.213 464.468 352.6 464.508 351.293 464.535C354.546 457.761 357.093 450.681 360.04 443.788C361.12 441.401 362.12 438.988 362.92 436.508ZM364.413 443.041C363.84 446.815 362.426 450.375 360.773 453.801C363.76 453.855 366.733 453.881 369.733 453.868C368.32 450.468 366.866 447.095 365.68 443.628C365.36 443.481 364.733 443.188 364.413 443.041Z" fill="#D0B392"/>
<path d="M456.907 436.268C461.64 435.762 466.614 435.162 471.16 436.948C477.32 440.455 476.2 451.388 468.934 452.842C471.534 456.588 473.747 460.575 476.147 464.455C474.774 464.495 472.027 464.548 470.667 464.575C467.694 460.615 466.107 455.668 462.387 452.308C462 456.308 461.84 460.362 461.12 464.348C460.094 464.415 458.04 464.575 457.014 464.642C456.854 455.188 456.8 445.722 456.907 436.268ZM462.147 440.255C462.067 443.108 462.027 445.962 462 448.828C464.76 448.602 468.214 449.348 470.08 446.708C470.64 444.548 469.96 442.495 468.387 441.002C466.374 440.335 464.214 440.455 462.147 440.255Z" fill="#D0B392"/>
<path d="M483.667 442.375C485.733 436.655 492.413 434.468 497.84 436.748C498.68 437.295 500.373 438.388 501.227 438.948C500.147 440.068 499.08 441.202 498.027 442.348C495.867 439.255 491.547 439.975 488.893 441.935C488.973 443.135 489.053 444.348 489.133 445.575C492.84 448.708 499.12 448.482 501.173 453.415C503.293 457.082 501.16 462.002 497.48 463.708C492.907 466.002 487.28 464.908 483.387 461.788C483.52 461.242 483.787 460.162 483.933 459.628C484.6 459.348 485.947 458.788 486.613 458.508C489.96 460.428 495.053 461.815 497.053 457.388C497.32 452.722 491.667 452.535 488.653 450.682C485.2 449.362 484.2 445.628 483.667 442.375Z" fill="#D0B392"/>
<path d="M548.707 436.002C550.413 436.082 552.147 436.175 553.893 436.295C558.213 442.789 562.173 449.522 566.36 456.109C566.413 449.469 566.373 442.829 566.493 436.189C567.667 436.215 570 436.242 571.173 436.255C571.08 445.669 571.547 455.095 570.827 464.482C568.133 464.575 565.44 463.975 564.213 461.295C560.627 455.135 555.173 449.829 553.387 442.815C553.12 449.962 552.987 457.122 552.973 464.295C551.893 464.295 549.733 464.322 548.64 464.322C548.653 454.882 547.64 445.415 548.707 436.002Z" fill="#D0B392"/>
<path d="M590.507 436.335C592.067 436.055 593.627 435.788 595.214 435.535C599.054 445.162 602.494 454.962 606.734 464.442C605.414 464.415 602.787 464.362 601.48 464.335C600.374 462.322 600.147 459.362 597.947 458.268C594.227 458.322 590.227 457.669 586.694 458.882C585.214 461.429 584.347 465.522 580.44 464.495C580.707 462.082 581.04 459.668 581.907 457.402C582.68 455.548 583.44 453.682 584.174 451.815C585.04 449.588 585.88 447.362 586.707 445.135C588.04 442.229 589.32 439.295 590.507 436.335ZM588.374 453.788C591.36 453.855 594.374 453.948 597.387 453.988C595.467 450.082 593.907 446.028 592.507 441.922C591.334 445.948 589.894 449.882 588.374 453.788Z" fill="#D0B392"/>
<path d="M614.213 464.415C613.986 454.841 613.893 445.268 614.24 435.708C615.4 435.695 617.72 435.681 618.893 435.668C619.08 443.881 619.013 452.121 619.293 460.348C622.88 460.281 626.48 460.335 630.08 460.521C630.053 461.481 630.013 463.415 630 464.388C624.733 464.455 619.466 464.388 614.213 464.415Z" fill="#D0B392"/>
<path d="M638.094 436.215C639.667 436.122 641.254 436.055 642.854 435.988C643.561 445.508 642.961 455.042 642.814 464.575C641.281 464.535 639.774 464.508 638.267 464.482C638.187 455.055 638.001 445.642 638.094 436.215Z" fill="#D0B392"/>
<path d="M690.146 436.255C691.773 436.201 693.413 436.188 695.066 436.175C697.666 443.841 701.066 451.202 704.039 458.722C704.839 460.615 705.693 462.495 706.639 464.348C704.813 464.415 703.013 464.495 701.213 464.588C700.493 462.775 699.76 460.962 699.173 459.122C694.733 458.015 690.133 458.241 685.68 459.108C685.146 460.975 684.493 462.815 683.746 464.615C682.2 464.521 680.653 464.442 679.133 464.375C679.639 462.922 680.146 461.455 680.706 460.028C681.813 457.281 682.986 454.548 684.119 451.815C686.146 446.628 688.133 441.441 690.146 436.255ZM687.719 453.921C690.933 454.081 694.159 454.175 697.386 454.042C695.599 450.322 694 446.521 692.573 442.655C691.146 446.481 689.479 450.228 687.719 453.921Z" fill="#D0B392"/>
<path d="M713.893 436.241C719.88 435.548 726.533 434.734 731.866 438.241C740 443.014 740.186 456.268 732.666 461.694C727.146 465.428 720.226 464.174 713.973 464.548C713.946 455.108 713.826 445.681 713.893 436.241ZM718.84 440.441C718.746 447.094 718.506 453.748 718.666 460.414C722 460.388 725.333 459.961 728.573 459.081C731.773 456.094 733.586 452.081 733 447.654C731.64 444.921 729.813 442.481 727.28 440.761C724.453 440.628 721.653 440.508 718.84 440.441Z" fill="#D0B392"/>
<path d="M265.307 428.255C266.974 428.362 268.654 428.468 270.347 428.588C267.68 430.522 265.214 432.748 262.32 434.335C263.054 432.175 264.08 430.162 265.307 428.255Z" fill="#D0B392"/>
<path d="M228 436.135C234.267 436.135 240.534 436.148 246.814 436.215C246.694 437.535 246.587 438.881 246.48 440.228C244.187 440.228 241.894 440.241 239.614 440.295C239.627 448.295 239.734 456.308 239.547 464.321C238.547 464.415 236.547 464.588 235.547 464.681C233.894 456.721 235.227 448.468 234.734 440.401C232.48 440.321 230.24 440.281 228 440.241C227.987 438.855 227.987 437.495 228 436.135Z" fill="#D0B392"/>
<path d="M327.666 438.255C329.573 437.121 331.666 436.375 333.72 435.535C337.773 435.001 341.746 435.881 345.293 437.881C345.16 438.615 344.88 440.095 344.733 440.828C340.133 441.081 334.626 438.855 330.826 442.375C325.866 446.015 325.44 454.201 330.16 458.228C333.12 461.321 338.133 461.215 341.76 459.388C342.693 459.255 343.64 459.148 344.586 459.041C344.84 460.348 345.106 461.655 345.386 462.988C344.533 463.348 342.84 464.081 341.986 464.441C337.653 464.908 332.92 465.335 328.986 463.041C320.12 458.361 319.44 443.895 327.666 438.255Z" fill="#D0B392"/>
<path d="M206.64 436.655C210.733 435.575 217.493 434.695 218.933 439.842C218.306 440.389 217.066 441.482 216.44 442.029C214.133 439.775 210.88 440.535 207.986 440.749C207.866 441.962 207.6 444.402 207.466 445.615C211.613 448.135 217.266 449.135 219.626 453.855C220.026 455.922 219.706 458.042 219.666 460.149C218.266 461.655 216.826 463.122 215.333 464.535C210.213 465.442 205.133 464.415 201.026 461.175C202.146 460.029 203.266 458.882 204.4 457.749C207.026 460.349 210.893 461.295 214.106 459.082C214.666 457.935 215.266 456.829 215.866 455.722C212.6 452.669 208.08 451.802 204.48 449.335C201.866 447.322 202.52 443.855 202.36 440.989C203.72 439.482 205.133 438.029 206.64 436.655Z" fill="#D0B392"/>
<path d="M255.626 436.322C261.08 436.148 266.519 436.108 271.973 436.255C271.919 437.628 271.866 439.015 271.826 440.415C268.093 440.375 264.346 440.335 260.626 440.295C260.213 442.962 260.146 445.668 260.813 448.308C264.346 448.135 267.893 448.175 271.439 448.295C271.439 449.575 271.44 450.868 271.453 452.175C267.666 452.148 263.879 452.162 260.106 452.495C260.346 455.095 260.586 457.695 260.786 460.322C264.533 460.268 268.279 460.282 272.026 460.308C271.999 461.668 271.973 463.042 271.973 464.428C266.559 464.468 261.16 464.428 255.746 464.442C255.466 455.068 255.733 445.695 255.626 436.322Z" fill="#D0B392"/>
<path d="M402.773 436.175C407.427 436.055 412.093 436.095 416.733 436.641C421.467 439.428 422.867 446.508 419.12 450.655C416.067 453.561 411.52 453.361 407.627 453.601C407.6 457.188 407.533 460.801 407.493 464.401C406.32 464.428 403.973 464.481 402.8 464.495C402.72 455.055 402.613 445.615 402.773 436.175ZM407.667 440.401C407.653 443.321 407.627 446.241 407.64 449.175C409.893 448.921 412.333 449.241 414.48 448.321C416.613 447.201 415.813 444.455 416.12 442.535C415.347 441.868 414.6 441.215 413.853 440.575C411.773 440.495 409.72 440.441 407.667 440.401Z" fill="#D0B392"/>
<path d="M430.519 436.255C435.906 436.135 441.306 436.175 446.693 436.108C446.613 437.482 446.546 438.855 446.479 440.242C442.826 440.282 439.186 440.388 435.546 440.415C435.573 442.748 435.586 445.082 435.559 447.428C439.093 447.535 442.613 447.695 446.146 447.788C446.186 448.855 446.266 450.988 446.306 452.055C442.653 452.122 438.999 452.242 435.359 452.375C435.399 454.988 435.439 457.602 435.559 460.228C439.519 460.228 443.493 460.282 447.453 460.268C447.426 461.655 447.399 463.055 447.386 464.468C441.759 464.482 436.133 464.562 430.519 464.562C430.519 455.122 430.373 445.682 430.519 436.255Z" fill="#D0B392"/>
<path d="M511.173 442.708C515.253 437.028 522.919 434.002 529.639 436.602C539.093 438.948 541.746 451.415 536.986 459.055C535.559 460.455 534.079 461.815 532.586 463.148C525.999 466.202 517.159 465.428 512.546 459.362L511.613 459.082C511.573 458.668 511.493 457.828 511.453 457.415C508.946 452.948 510.026 447.428 511.173 442.708ZM515.746 444.882C513.146 450.335 515.106 458.188 521.479 459.815C528.999 463.015 537.413 453.468 533.293 446.455C533.266 446.148 533.213 445.548 533.186 445.242C532.666 444.508 531.639 443.042 531.133 442.295C527.813 440.202 523.906 440.295 520.159 440.668C518.626 441.988 517.146 443.402 515.746 444.882Z" fill="#D0B392"/>
<path d="M176.6 436.228C179.653 436.175 182.693 436.122 185.747 436.028C188.173 436.095 190.6 436.175 193.027 436.322C192.667 437.708 192.32 439.108 191.96 440.522C188.36 440.375 184.773 440.362 181.173 440.322C181.267 442.735 181.347 445.162 181.427 447.602C184.893 447.642 188.347 447.682 191.827 447.668C191.867 449.175 191.907 450.695 191.947 452.228C188.373 452.188 184.8 452.175 181.24 452.162C181.2 454.868 181.2 457.575 181.2 460.295C185.147 460.255 189.093 460.255 193.053 460.255C193 461.628 192.973 463.015 192.947 464.415C187.52 464.415 182.107 464.388 176.68 464.388C176.307 455.002 175.96 445.602 176.6 436.228Z" fill="#D0B392"/>
<path d="M653.093 436.441C659.786 435.748 666.52 435.615 673.226 436.295C671.093 445.575 662.693 451.615 659.013 460.255C663.506 460.255 668.066 459.921 672.546 460.601C672.626 461.535 672.773 463.428 672.84 464.361C666.093 464.468 659.333 464.508 652.6 464.335C652.746 462.801 652.92 461.268 653.12 459.761C657.72 453.428 662.04 446.881 666.453 440.415C662.213 440.361 657.973 440.521 653.76 440.068C653.6 439.161 653.266 437.348 653.093 436.441Z" fill="#D0B392"/>
<path d="M755.147 436.575C756.92 436.455 758.707 436.375 760.52 436.335C764.173 445.788 767.947 455.202 771.88 464.535C770.587 464.535 767.987 464.548 766.693 464.548C765.627 462.415 764.587 460.308 763.52 458.202C759.933 458.295 756.347 458.082 752.787 458.375C750.453 459.455 750.187 462.508 748.92 464.548C747.347 464.508 745.773 464.495 744.227 464.482C746 460.268 747.72 456.028 749.4 451.788C750.827 448.255 752.133 444.682 753.467 441.122C754.04 439.602 754.6 438.082 755.147 436.575ZM753.08 453.842C756.147 453.895 759.213 453.922 762.307 453.908C760.893 449.815 759.2 445.842 757.813 441.762C756.92 446.015 754.88 449.908 753.08 453.842Z" fill="#D0B392"/>
</svg>
