<svg width="933" height="376" viewBox="0 0 933 376" fill="none" xmlns="http://www.w3.org/2000/svg">
<path d="M418.8 14.3748C430.054 8.04146 442.28 3.01482 455.16 1.36149C472.094 -1.41184 489.52 0.188135 505.974 4.92147C543.734 17.3081 573.547 52.2415 577.6 92.0548C582 124.081 570.787 157.948 547.76 180.708C541.494 187.561 533.374 192.241 525.64 197.228C519.334 201.201 512.107 203.308 505.12 205.695C512.574 197.681 520.947 190.628 528.747 182.975C539.507 173.601 549.894 163.428 556.787 150.788C559.48 145.655 561.787 140.335 563.24 134.721C566.067 125.855 568.427 116.695 567.84 107.308C557.147 106.668 546.854 109.695 536.8 112.921C538.974 120.841 540.227 129.028 540.64 137.228C540.72 148.255 538.227 159.228 534 169.388C529.747 178.095 524.04 186.015 517.094 192.761C511.44 198.148 506.414 204.788 498.894 207.641C458.16 218.948 411.694 202.148 387.267 167.735C375.587 152.001 368.134 132.988 366.947 113.375C364.76 85.8281 373.974 57.7215 391.774 36.6415C399.934 28.2948 408.427 19.9348 418.8 14.3748ZM448.214 13.9082C421.734 20.4415 399.054 39.5882 386.88 63.8148C385.96 66.0282 384.974 68.2015 383.96 70.3748C372.48 99.2548 376.014 133.855 394.414 159.095C406.64 176.695 424.867 190.655 445.854 195.775C450.534 197.361 455.427 197.975 460.28 198.828C463.28 198.988 466.294 199.055 469.32 199.162C470.454 191.028 468.84 182.761 469.854 174.588C471.4 154.215 484.134 136.921 498.36 123.175C505.534 117.108 513.6 112.228 521.454 107.108C518.454 102.801 515.32 98.5882 511.32 95.1615C510.894 95.2282 510.054 95.3615 509.627 95.4281C502.72 105.095 492.027 111.348 480.534 113.868C466.934 115.962 452.067 113.228 441.307 104.295C433.774 98.6815 429.307 89.8948 427.347 80.8815C429.947 79.0681 432.68 77.4148 435.574 76.0815C429.107 74.2815 425.307 67.8415 422.454 62.2148C421.04 58.0681 417.96 51.8815 422.387 48.5348C429.027 44.4682 437.347 44.2681 444.76 46.0148C444.814 38.3615 446.094 28.9748 453.614 25.0282C464.947 19.4415 478.52 21.9348 489.614 26.9215C503.2 33.5748 514.8 45.7482 517.254 61.1082C519.814 68.9082 516.854 76.8415 516.68 84.6415C522.12 89.3481 527.027 94.6681 530.52 101.001C531.6 103.308 534.534 101.561 536.28 101.148C537.614 100.668 538.974 100.188 540.334 99.7215C543.974 99.0281 547.587 98.1748 551.227 97.4681C556.307 96.2148 561.574 96.2681 566.774 96.0548C566.854 86.3348 563.747 76.9481 560.28 67.9748C559.08 65.2148 557.734 62.5348 556.294 59.8948C553.28 54.6548 549.614 49.8281 545.987 45.0148C532.547 28.3348 513 17.0281 492.147 12.6015C477.627 10.0281 462.534 10.3615 448.214 13.9082ZM456.134 40.9748C454.787 49.9081 456.347 59.4815 461.12 67.2282C469.347 66.2948 477.774 66.4548 485.814 68.5748C493.014 70.3082 499.267 74.4548 506.067 77.2282C506.907 73.7215 507.64 70.1482 507.4 66.5215C506.76 63.9482 506.294 61.3482 505.64 58.7882C505.147 57.4415 504.654 56.0948 504.16 54.7615C497.814 40.6681 481.88 33.1481 466.987 32.9748C462.107 32.7215 456.894 35.8815 456.134 40.9748ZM445.494 71.2415C446.747 70.7348 448 70.2282 449.267 69.7348C447.2 65.4415 446.027 60.7881 444.014 56.5081C440.8 54.3881 436.24 55.5882 432.534 55.4948C434.827 62.0548 440.427 66.7748 445.494 71.2415ZM470.814 78.3215C477.787 82.5482 485.987 84.6281 494.147 84.0948C487.227 79.8681 478.694 79.3748 470.814 78.3215ZM441.68 86.8815C445.64 92.9748 451.014 98.3348 457.894 101.015C467.24 104.881 477.947 104.015 487.04 99.8282C490.494 97.8948 493.534 95.3615 496.627 92.9082C482.6 96.8948 465.907 93.0015 457.467 80.4548C451.774 81.4415 446.68 84.1481 441.68 86.8815ZM506.774 131.521C497.187 139.881 488.814 149.895 483.374 161.468C481.08 166.735 478.147 171.761 476.387 177.268C474.507 183.655 473.68 190.321 473.52 196.975C491.44 196.455 510.227 188.161 519.374 172.095C529.787 156.588 532.267 136.361 526.614 118.655C518.867 120.868 512.747 126.388 506.774 131.521Z" fill="#D0B392"/>
<path d="M90.9598 272.144C95.2265 270.544 97.3865 274.877 98.8398 278.104C105.48 291.691 111.667 305.504 118.013 319.224C119.133 321.984 120.333 324.731 121.48 327.491C128.347 340.997 133.44 355.304 140.333 368.784C140.867 370.304 141.36 371.851 141.853 373.397C137.787 373.477 133.72 373.411 129.653 373.211C127.04 366.184 123.747 359.437 120.76 352.571C119.8 350.357 118.88 348.144 118.013 345.904C116.907 343.424 115.84 340.931 115.027 338.344C100.733 337.677 86.3865 337.931 72.0798 338.251C70.9865 340.931 69.8265 343.597 68.7198 346.277C67.6132 348.824 66.5332 351.384 65.4132 353.917C62.4798 360.397 59.8265 366.984 56.9732 373.491C53.2532 373.491 49.5465 373.451 45.8398 373.357C46.9065 368.104 49.2932 363.264 51.4398 358.397C56.4532 348.157 60.4532 337.477 65.4398 327.237C66.9598 323.757 68.4932 320.304 70.1065 316.877C71.1065 314.504 72.1865 312.171 73.2798 309.851C79.3998 297.384 84.2132 284.291 90.9598 272.144ZM77.5065 326.944C88.1465 327.091 98.7998 327.157 109.453 326.944C104.6 314.424 98.2398 302.491 93.7598 289.851C88.4265 302.251 82.8798 314.557 77.5065 326.944Z" fill="#D0B392"/>
<path d="M242.813 272.384C246.773 272.344 250.72 272.317 254.68 272.277C254.813 306.024 255.36 339.797 254.533 373.544C250.853 373.571 247.173 373.571 243.493 373.557C243.44 348.904 243.573 324.251 243.493 299.611C243.027 299.731 242.093 299.984 241.627 300.104C239.92 304.957 237.213 309.384 235.333 314.171C229.427 325.904 225.253 338.424 218.866 349.917C217.693 352.677 216.493 355.437 215.533 358.291C214.786 359.944 214.066 361.611 213.32 363.277C211.466 367.184 209.653 371.117 207.466 374.851C205.026 374.771 202.6 374.691 200.173 374.611C198.573 370.811 197 367.011 195.506 363.171C193.626 359.224 191.906 355.211 190.133 351.224C182.986 335.931 176.546 320.304 169.306 305.037C168.613 303.624 167.92 302.224 167.213 300.837C166.373 298.824 165.813 296.717 165.386 294.584C164.226 320.824 164.813 347.104 164.773 373.357C161.013 373.517 157.24 373.517 153.493 373.357C153.56 349.611 153.64 325.864 153.893 302.104C154.186 292.171 153.133 282.237 154 272.317C157.987 272.304 161.973 272.264 165.96 272.317C166.293 273.064 166.96 274.571 167.28 275.317C174.533 290.357 181.653 305.477 188.08 320.877C189.147 323.024 190.24 325.144 191.4 327.264C195.4 337.477 200.32 347.291 204.333 357.491C206.707 351.304 209.92 345.491 212.253 339.291C214.973 334.184 217.186 328.851 219.4 323.531C225.013 310.997 230.733 298.504 236.693 286.144C238.026 283.037 239.4 279.971 240.787 276.904C241.453 275.384 242.146 273.891 242.813 272.384Z" fill="#D0B392"/>
<path d="M572.44 275.677C585.96 270.05 601.573 269.703 615.24 275.037C617.773 276.29 620.28 277.61 622.76 278.997C622.694 283.277 622.427 287.543 621.947 291.797C613.56 285.343 603 281.623 592.36 282.357C577.427 282.343 564.107 292.943 558.04 306.157C557.36 308.277 556.747 310.41 556.04 312.543C554.88 323.09 554.667 334.303 559.453 344.077C566.12 356.97 580.293 365.997 594.987 365.25C604.573 365.53 613.68 361.623 621.267 356.01C622.12 359.73 622.8 363.49 623.44 367.277C621.014 368.53 618.627 369.837 616.227 371.117C602.867 377.303 587.054 377.277 573.427 371.863C557.44 364.597 545.493 348.783 543.813 331.183C539.773 309.01 552.187 285.41 572.44 275.677Z" fill="#D0B392"/>
<path d="M727.894 270.664C733.36 270.531 736.427 275.264 739.507 278.984C760.227 305.264 780.867 331.611 802.347 357.291C807.374 361.864 804.854 369.304 805.307 375.277C803.454 374.891 801.134 375.251 800.027 373.384C776.174 343.304 752.667 312.944 727.987 283.517C727.934 279.237 727.894 274.944 727.894 270.664Z" fill="#D0B392"/>
<path d="M880.133 276.304C896.667 269.024 916.907 269.251 932.373 279.091C932.013 283.264 931.373 287.397 930.373 291.464C915.16 278.384 889.893 279.144 875.813 293.544C865.307 304.344 861.933 320.931 865.747 335.304C868.853 349.517 880.947 360.984 894.973 364.357C907.16 367.251 920.013 363.264 929.893 355.931C930.933 359.771 931.88 363.651 932.333 367.637C930.613 368.571 928.893 369.517 927.2 370.464C924.973 371.304 922.773 372.184 920.613 373.131C908.893 376.757 896.12 376.797 884.533 372.611C872.773 368.037 862.92 358.837 857.387 347.504C856.52 345.291 855.64 343.091 854.76 340.904C853.093 333.477 850.92 325.771 852.48 318.157C852.88 314.451 853.64 310.811 854.64 307.237C858.507 293.997 868.24 283.011 880.133 276.304Z" fill="#D0B392"/>
<path d="M0 272.277C3.8 272.277 7.6 272.291 11.4 272.331C11.56 302.637 11.12 332.944 11.44 363.251C20.9067 363.944 30.4267 363.264 39.92 363.651C39.9867 366.877 40.0133 370.117 39.9733 373.371C26.9067 373.771 13.8267 373.464 0.746663 373.544C0.41333 371.517 0.0799967 369.464 0.0799967 367.424C0.0533301 335.704 0.226667 303.984 0 272.277Z" fill="#D0B392"/>
<path d="M275.28 272.357C278.893 272.357 282.493 272.317 286.12 272.317C285.933 285.397 286.027 298.477 285.92 311.557C284.893 319.063 286.453 326.597 285.88 334.13C285.04 342.61 285.8 351.957 291.067 359.01C298.467 367.423 313.787 367.343 320.653 358.25C323.387 354.837 324.373 350.33 324.627 346.05C324.88 321.49 324.56 296.917 324.787 272.357C328.4 272.343 332.013 272.317 335.64 272.29C335.72 295.53 335.733 318.783 335.653 342.023C335.707 348.677 334.693 355.557 331.493 361.49C327.453 368.637 320.2 373.57 312.267 375.41C303.893 376.73 294.667 375.943 287.667 370.743C278.533 364.41 274.653 352.81 274.853 342.077C275.067 318.837 274.453 295.57 275.28 272.357Z" fill="#D0B392"/>
<path d="M356.467 290.103C356.96 284.143 355.387 278.143 356.827 272.25C364.253 272.29 371.813 271.743 378.973 274.13C388.187 277.717 396.453 284.97 399.507 294.583C402.44 303.517 401.68 313.557 397.64 322.023C393.32 330.157 385.267 335.623 376.48 337.93C385.827 349.903 396.24 361.023 405.16 373.343C400.36 373.557 395.573 373.677 390.787 373.543C383.453 363.503 375.653 353.85 367.747 344.277C367.453 353.983 367.493 363.677 367.453 373.383C363.867 373.45 360.28 373.49 356.707 373.557C356.427 355.49 356.067 337.45 356.267 319.383C356.213 315.837 356.213 312.29 356.293 308.743C356.2 302.53 355.96 296.303 356.467 290.103ZM367.627 328.637C375.627 329.157 383.36 325.05 387.64 318.33C388.547 315.65 389.373 312.943 390.2 310.25C390.467 304.73 389.787 299.037 387.307 294.05C383.253 287.09 375.373 283.157 367.547 282.343C367.307 297.77 367.08 313.21 367.627 328.637Z" fill="#D0B392"/>
<path d="M419.627 373.544C419.814 339.81 419.667 306.064 419.774 272.33C423.32 272.304 426.867 272.264 430.414 272.224C430.587 305.984 430.64 339.744 430.467 373.504C426.854 373.544 423.24 373.557 419.627 373.544Z" fill="#D0B392"/>
<path d="M449.867 272.277C462.107 272.37 474.347 272.157 486.587 272.29C486.667 276.237 486.64 280.197 486.56 284.157C474.4 284.21 462.227 284.237 450.054 284.024C449.907 280.104 449.84 276.184 449.867 272.277Z" fill="#D0B392"/>
<path d="M642.481 373.491C642.294 339.784 642.227 306.077 642.467 272.384C646.054 272.357 649.654 272.331 653.254 272.317C653.547 302.597 653.214 332.891 653.214 363.171C663.014 363.451 672.827 363.144 682.627 363.251C682.694 366.024 682.827 368.837 683.441 371.584C683.161 372.077 682.601 373.091 682.321 373.597C669.041 373.531 655.747 373.904 642.481 373.491Z" fill="#D0B392"/>
<path d="M695.747 272.331C699.373 272.304 703 272.264 706.653 272.237C706.893 291.064 707.027 309.904 707.2 328.731C707.44 340.291 707.12 351.837 706.92 363.397C706.867 366.771 706.787 370.144 706.707 373.517C703.053 373.544 699.4 373.544 695.747 373.531C695.64 339.797 695.813 306.064 695.747 272.331Z" fill="#D0B392"/>
<path d="M794.2 311.397C794.44 298.384 793.787 285.357 794.4 272.357C798.013 272.304 801.64 272.25 805.267 272.224C805.36 286.944 805.32 301.677 805.187 316.397C805.214 320.73 799.2 321.264 796.387 319.41C793.64 317.65 794.32 314.144 794.2 311.397Z" fill="#D0B392"/>
<path d="M826.36 373.477C826.266 339.77 826.133 306.05 826.32 272.343C829.973 272.303 833.64 272.303 837.32 272.317C837.52 306.037 837.506 339.77 837.36 373.503C833.68 373.463 830.026 373.45 826.36 373.477Z" fill="#D0B392"/>
<path d="M726.547 316.584C726.774 309.717 738.88 311.29 738.147 317.904C738.48 336.397 737.947 354.904 737.947 373.397C734.2 373.584 730.467 373.504 726.747 373.304C726.507 354.397 726.574 335.49 726.547 316.584Z" fill="#D0B392"/>
<path d="M449.974 317.01C460.667 316.917 471.4 316.277 482.067 317.144C482.12 320.744 481.934 324.344 481.307 327.904C470.96 327.85 460.614 328.05 450.267 327.824C450.107 324.21 450.027 320.61 449.974 317.01Z" fill="#D0B392"/>
<path d="M449.547 363.73C461.92 363.17 474.32 362.864 486.707 363.597C486.72 366.864 486.734 370.144 486.68 373.424C474.427 373.517 462.174 373.717 449.934 373.477C449.787 370.224 449.627 366.97 449.547 363.73Z" fill="#D0B392"/>
<path d="M94.9063 249.357C98.2929 249.224 101.68 249.197 105.066 249.144C101.6 254.184 99.2529 259.85 96.5462 265.317C94.3329 265.45 92.1196 265.584 89.9062 265.717C90.2529 264.517 90.9596 262.104 91.3196 260.904C92.3596 256.997 93.6396 253.184 94.9063 249.357Z" fill="#D0B392"/>
</svg>
