<svg width="212" height="212" viewBox="0 0 212 212" fill="none" xmlns="http://www.w3.org/2000/svg">
<path d="M52.1704 14.3748C63.4237 8.04146 75.6504 3.01482 88.5304 1.36149C105.464 -1.41184 122.89 0.188135 139.344 4.92147C177.104 17.3081 206.917 52.2415 210.97 92.0548C215.37 124.081 204.157 157.948 181.13 180.708C174.864 187.561 166.744 192.241 159.01 197.228C152.704 201.201 145.477 203.308 138.49 205.695C145.944 197.681 154.317 190.628 162.117 182.975C172.877 173.601 183.264 163.428 190.157 150.788C192.85 145.655 195.157 140.335 196.61 134.721C199.437 125.855 201.797 116.695 201.21 107.308C190.517 106.668 180.224 109.695 170.17 112.921C172.344 120.841 173.597 129.028 174.01 137.228C174.09 148.255 171.597 159.228 167.37 169.388C163.117 178.095 157.41 186.015 150.464 192.761C144.81 198.148 139.784 204.788 132.264 207.641C91.5304 218.948 45.0638 202.148 20.6371 167.735C8.95709 152.001 1.50377 132.988 0.3171 113.375C-1.86957 85.8281 7.34376 57.7215 25.1438 36.6415C33.3038 28.2948 41.7971 19.9348 52.1704 14.3748ZM81.5837 13.9082C55.1037 20.4415 32.4237 39.5882 20.2504 63.8148C19.3304 66.0282 18.3438 68.2015 17.3304 70.3748C5.85045 99.2548 9.38378 133.855 27.7838 159.095C40.0104 176.695 58.2371 190.655 79.2238 195.775C83.9038 197.361 88.7971 197.975 93.6504 198.828C96.6504 198.988 99.6638 199.055 102.69 199.162C103.824 191.028 102.21 182.761 103.224 174.588C104.77 154.215 117.504 136.921 131.73 123.175C138.904 117.108 146.97 112.228 154.824 107.108C151.824 102.801 148.69 98.5882 144.69 95.1615C144.264 95.2282 143.424 95.3615 142.997 95.4281C136.09 105.095 125.397 111.348 113.904 113.868C100.304 115.962 85.4371 113.228 74.6771 104.295C67.1438 98.6815 62.6771 89.8948 60.7171 80.8815C63.3171 79.0681 66.0504 77.4148 68.9438 76.0815C62.4771 74.2815 58.6771 67.8415 55.8238 62.2148C54.4104 58.0681 51.3304 51.8815 55.7571 48.5348C62.3971 44.4682 70.7171 44.2681 78.1304 46.0148C78.1837 38.3615 79.4638 28.9748 86.9838 25.0282C98.3171 19.4415 111.89 21.9348 122.984 26.9215C136.57 33.5748 148.17 45.7482 150.624 61.1082C153.184 68.9082 150.224 76.8415 150.05 84.6415C155.49 89.3481 160.397 94.6681 163.89 101.001C164.97 103.308 167.904 101.561 169.65 101.148C170.984 100.668 172.344 100.188 173.704 99.7215C177.344 99.0281 180.957 98.1748 184.597 97.4681C189.677 96.2148 194.944 96.2681 200.144 96.0548C200.224 86.3348 197.117 76.9481 193.65 67.9748C192.45 65.2148 191.104 62.5348 189.664 59.8948C186.65 54.6548 182.984 49.8281 179.357 45.0148C165.917 28.3348 146.37 17.0281 125.517 12.6015C110.997 10.0281 95.9037 10.3615 81.5837 13.9082ZM89.5037 40.9748C88.1571 49.9081 89.7171 59.4815 94.4904 67.2282C102.717 66.2948 111.144 66.4548 119.184 68.5748C126.384 70.3082 132.637 74.4548 139.437 77.2282C140.277 73.7215 141.01 70.1482 140.77 66.5215C140.13 63.9482 139.664 61.3482 139.01 58.7882C138.517 57.4415 138.024 56.0948 137.53 54.7615C131.184 40.6681 115.25 33.1481 100.357 32.9748C95.4771 32.7215 90.2637 35.8815 89.5037 40.9748ZM78.8638 71.2415C80.1171 70.7348 81.3704 70.2282 82.6371 69.7348C80.5704 65.4415 79.3971 60.7881 77.3838 56.5081C74.1704 54.3881 69.6104 55.5882 65.9038 55.4948C68.1971 62.0548 73.7971 66.7748 78.8638 71.2415ZM104.184 78.3215C111.157 82.5482 119.357 84.6281 127.517 84.0948C120.597 79.8681 112.064 79.3748 104.184 78.3215ZM75.0504 86.8815C79.0104 92.9748 84.3838 98.3348 91.2638 101.015C100.61 104.881 111.317 104.015 120.41 99.8282C123.864 97.8948 126.904 95.3615 129.997 92.9082C115.97 96.8948 99.2771 93.0015 90.8371 80.4548C85.1437 81.4415 80.0504 84.1481 75.0504 86.8815ZM140.144 131.521C130.557 139.881 122.184 149.895 116.744 161.468C114.45 166.735 111.517 171.761 109.757 177.268C107.877 183.655 107.05 190.321 106.89 196.975C124.81 196.455 143.597 188.161 152.744 172.095C163.157 156.588 165.637 136.361 159.984 118.655C152.237 120.868 146.117 126.388 140.144 131.521Z" fill="#D0B392"/>
</svg>
